<svg width="24" height="24" viewBox="0 0 24 24" fill="none" xmlns="http://www.w3.org/2000/svg">
<path d="M19.3393 7.84945C19.7623 7.42659 19.9999 6.85302 20 6.25492C20.0001 5.65682 19.7626 5.08319 19.3397 4.66022C18.9168 4.23725 18.3433 3.99959 17.7452 3.99951C17.1471 3.99944 16.5734 4.23696 16.1505 4.65982L5.47356 15.3391C5.28781 15.5243 5.15045 15.7523 5.07356 16.0031L4.01675 19.4848C3.99607 19.5539 3.99451 19.6274 4.01223 19.6974C4.02995 19.7674 4.06628 19.8313 4.11739 19.8824C4.16849 19.9334 4.23245 19.9696 4.30248 19.9872C4.37251 20.0048 4.446 20.0032 4.51515 19.9824L7.99758 18.9264C8.24812 18.8502 8.47613 18.7136 8.66159 18.5287L19.3393 7.84945Z" stroke="black" stroke-width="1.60001" stroke-linecap="round" stroke-linejoin="round"/>
<path d="M14.3999 6.39984L17.5999 9.59987" stroke="black" stroke-width="1.60001" stroke-linecap="round" stroke-linejoin="round"/>
</svg>
