<svg width="29" height="28" viewBox="0 0 29 28" fill="none" xmlns="http://www.w3.org/2000/svg">
<path d="M12.4795 24.5C12.6843 24.8547 12.9788 25.1492 13.3335 25.354C13.6882 25.5588 14.0906 25.6666 14.5002 25.6666C14.9097 25.6666 15.3121 25.5588 15.6668 25.354C16.0215 25.1492 16.316 24.8547 16.5208 24.5" stroke="black" stroke-width="2" stroke-linecap="round" stroke-linejoin="round"/>
<path d="M4.30579 17.8804C4.15338 18.0474 4.0528 18.2552 4.01629 18.4783C3.97977 18.7015 4.0089 18.9304 4.10012 19.1373C4.19133 19.3442 4.34072 19.5202 4.53009 19.6438C4.71946 19.7673 4.94067 19.8332 5.16679 19.8334H23.8335C24.0596 19.8335 24.2808 19.7678 24.4703 19.6445C24.6598 19.5212 24.8094 19.3454 24.9008 19.1386C24.9923 18.9319 25.0217 18.703 24.9855 18.4798C24.9492 18.2566 24.849 18.0488 24.6968 17.8815C23.1451 16.282 21.5001 14.5822 21.5001 9.33337C21.5001 7.47686 20.7626 5.69638 19.4499 4.38363C18.1371 3.07087 16.3566 2.33337 14.5001 2.33337C12.6436 2.33337 10.8631 3.07087 9.55038 4.38363C8.23762 5.69638 7.50012 7.47686 7.50012 9.33337C7.50012 14.5822 5.85396 16.282 4.30579 17.8804Z" stroke="black" stroke-width="2" stroke-linecap="round" stroke-linejoin="round"/>
</svg>
