<svg width="53" height="48" viewBox="0 0 53 48" fill="none" xmlns="http://www.w3.org/2000/svg">
<path d="M5.66634 5.66659H13.4788L18.6872 0.458252H34.3122L39.5205 5.66659H47.333C48.7143 5.66659 50.0391 6.21532 51.0159 7.19207C51.9926 8.16882 52.5413 9.49358 52.5413 10.8749V42.1249C52.5413 43.5063 51.9926 44.831 51.0159 45.8078C50.0391 46.7845 48.7143 47.3333 47.333 47.3333H5.66634C4.28501 47.3333 2.96024 46.7845 1.98349 45.8078C1.00674 44.831 0.458008 43.5063 0.458008 42.1249V10.8749C0.458008 9.49358 1.00674 8.16882 1.98349 7.19207C2.96024 6.21532 4.28501 5.66659 5.66634 5.66659ZM26.4997 13.4791C23.0463 13.4791 19.7344 14.8509 17.2926 17.2928C14.8507 19.7347 13.4788 23.0466 13.4788 26.4999C13.4788 29.9533 14.8507 33.2652 17.2926 35.707C19.7344 38.1489 23.0463 39.5208 26.4997 39.5208C29.953 39.5208 33.2649 38.1489 35.7068 35.707C38.1487 33.2652 39.5205 29.9533 39.5205 26.4999C39.5205 23.0466 38.1487 19.7347 35.7068 17.2928C33.2649 14.8509 29.953 13.4791 26.4997 13.4791ZM26.4997 18.6874C28.5717 18.6874 30.5588 19.5105 32.0239 20.9756C33.4891 22.4408 34.3122 24.4279 34.3122 26.4999C34.3122 28.5719 33.4891 30.5591 32.0239 32.0242C30.5588 33.4893 28.5717 34.3124 26.4997 34.3124C24.4277 34.3124 22.4405 33.4893 20.9754 32.0242C19.5103 30.5591 18.6872 28.5719 18.6872 26.4999C18.6872 24.4279 19.5103 22.4408 20.9754 20.9756C22.4405 19.5105 24.4277 18.6874 26.4997 18.6874Z" fill="white"/>
</svg>
