<svg width="89" height="89" viewBox="0 0 89 89" fill="none" xmlns="http://www.w3.org/2000/svg">
<path d="M33.375 51.917C33.375 58.0617 43.3356 63.042 55.625 63.042C67.9144 63.042 77.875 58.0617 77.875 51.917C77.875 45.7723 67.9144 40.792 55.625 40.792C43.3356 40.792 33.375 45.7723 33.375 51.917Z" stroke="#E5426B" stroke-width="6" stroke-linecap="round" stroke-linejoin="round"/>
<path d="M33.375 51.9167V66.75C33.375 72.891 43.3356 77.875 55.625 77.875C67.9144 77.875 77.875 72.891 77.875 66.75V51.9167M11.125 22.25C11.125 26.2253 15.3673 29.8966 22.25 31.8842C29.1327 33.8719 37.6173 33.8719 44.5 31.8842C51.3827 29.8966 55.625 26.2253 55.625 22.25C55.625 18.2747 51.3827 14.6034 44.5 12.6158C37.6173 10.6281 29.1327 10.6281 22.25 12.6158C15.3673 14.6034 11.125 18.2747 11.125 22.25Z" stroke="#E5426B" stroke-width="6" stroke-linecap="round" stroke-linejoin="round"/>
<path d="M11.125 22.25V59.3333C11.125 62.6263 13.9878 64.7104 18.5417 66.75" stroke="#E5426B" stroke-width="6" stroke-linecap="round" stroke-linejoin="round"/>
<path d="M11.125 40.792C11.125 44.085 13.9878 46.1691 18.5417 48.2087" stroke="#E5426B" stroke-width="6" stroke-linecap="round" stroke-linejoin="round"/>
</svg>
