<svg width="25" height="25" viewBox="0 0 25 25" fill="none" xmlns="http://www.w3.org/2000/svg">
<path d="M16.0251 2.69229H9.89015C4.28415 2.69229 2.95215 4.02529 2.95215 9.61929V15.7553C2.95215 21.3593 4.27515 22.6923 9.87915 22.6923H16.0151C21.6191 22.6923 22.9521 21.3693 22.9521 15.7653V9.63029C22.9521 4.02429 21.6291 2.69229 16.0251 2.69229ZM19.0981 16.9623H17.6391C17.0871 16.9623 16.9211 16.5153 15.9311 15.5253C15.0671 14.6923 14.7021 14.5883 14.4831 14.5883C14.1811 14.5883 14.0981 14.6713 14.0981 15.0883V16.4003C14.0981 16.7553 13.9831 16.9633 13.0561 16.9633C12.1567 16.9022 11.2845 16.6286 10.5113 16.165C9.73803 15.7014 9.0858 15.0609 8.60815 14.2963C7.4745 12.8868 6.68618 11.2317 6.30615 9.46329C6.30615 9.24429 6.38915 9.04629 6.80615 9.04629H8.26515C8.64015 9.04629 8.77515 9.21329 8.92115 9.59829C9.62915 11.6823 10.8371 13.4943 11.3271 13.4943C11.5151 13.4943 11.5971 13.4113 11.5971 12.9423V10.7963C11.5351 9.81729 11.0151 9.73429 11.0151 9.38029C11.0218 9.28692 11.0646 9.19982 11.1344 9.13747C11.2043 9.07512 11.2956 9.04241 11.3891 9.04629H13.6811C13.9941 9.04629 14.0981 9.20229 14.0981 9.57729V12.4733C14.0981 12.7863 14.2331 12.8903 14.3271 12.8903C14.5151 12.8903 14.6601 12.7863 15.0041 12.4423C15.743 11.5412 16.3467 10.5374 16.7961 9.46229C16.8424 9.33334 16.9294 9.22298 17.044 9.14791C17.1585 9.07284 17.2945 9.03717 17.4311 9.04629H18.8901C19.3271 9.04629 19.4201 9.26529 19.3271 9.57729C18.7967 10.7657 18.1403 11.8939 17.3691 12.9423C17.2121 13.1823 17.1491 13.3073 17.3691 13.5883C17.5141 13.8073 18.0251 14.2343 18.3691 14.6403C18.8689 15.1391 19.284 15.716 19.5981 16.3483C19.7231 16.7543 19.5141 16.9623 19.0981 16.9623Z" fill="white"/>
</svg>
